<svg width="82" height="36" viewBox="0 0 82 36" fill="none" xmlns="http://www.w3.org/2000/svg">
<path d="M15.6641 0.402232H23.4201V35.5978H18.148V10.3575L14.2954 35.5978H9.02332L4.86651 10.7095V35.5978H0V0.402232H7.756L11.8621 25.3911L15.6641 0.402232Z" fill="#F23207"/>
<path d="M39.1357 35.5978L38.1725 29.2123H31.329L30.3658 35.5978H25.2458L30.9234 0.402232H39.085L44.7626 35.5978H39.1357ZM37.4121 24.4358L34.7254 6.63687L32.0387 24.4358H37.4121Z" fill="#F23207"/>
<path d="M58.2583 35.5978C58.0556 35.0279 57.9204 34.4916 57.8528 33.9888C57.7852 33.486 57.7514 32.581 57.7514 31.2737V25.743C57.7514 24.1341 57.4641 22.9944 56.8896 22.324C56.3151 21.6201 55.3857 21.2682 54.1015 21.2682H52.1752V35.5978H46.599V0.402232H55.014C57.8866 0.402232 59.9819 1.07262 61.2999 2.41341C62.6179 3.72067 63.2769 5.7486 63.2769 8.4972V11.2626C63.2769 14.8827 62.0603 17.2626 59.627 18.4022C60.9451 18.9385 61.8913 19.8436 62.4658 21.1173C63.0404 22.3575 63.3276 23.9497 63.3276 25.8939V31.324C63.3276 32.3296 63.3614 33.1508 63.429 33.7877C63.4966 34.3911 63.6656 34.9944 63.9359 35.5978H58.2583ZM52.1752 16.2402H54.355C55.4702 16.2402 56.2982 15.9553 56.8389 15.3855C57.4135 14.8156 57.7007 13.8603 57.7007 12.5196V9.05028C57.7007 7.77654 57.4641 6.85475 56.991 6.28492C56.5517 5.71508 55.842 5.43017 54.8619 5.43017H52.1752V16.2402Z" fill="#F23207"/>
<path d="M65.5248 8.84916C65.5248 6 66.2176 3.82123 67.6032 2.31285C68.9888 0.770949 71.0335 0 73.7371 0C76.4407 0 78.4853 0.770949 79.8709 2.31285C81.2565 3.82123 81.9493 6 81.9493 8.84916V9.9553H76.6772V8.4972C76.6772 7.2905 76.4407 6.41899 75.9676 5.88268C75.4944 5.31285 74.8016 5.02793 73.8891 5.02793C72.9767 5.02793 72.2839 5.31285 71.8107 5.88268C71.3376 6.41899 71.101 7.2905 71.101 8.4972C71.101 9.97206 71.4897 11.2626 72.267 12.3687C73.0781 13.4749 74.2778 14.7318 75.8662 16.1397C77.1842 17.3464 78.2487 18.419 79.0598 19.3575C79.8709 20.2626 80.5637 21.3687 81.1382 22.676C81.7127 23.9832 82 25.4749 82 27.1508C82 30 81.2903 32.1955 79.8709 33.7374C78.4515 35.2458 76.39 36 73.6864 36C70.9828 36 68.9212 35.2458 67.5019 33.7374C66.0825 32.1955 65.3727 30 65.3727 27.1508V24.9888H70.6448V27.5028C70.6448 29.7821 71.608 30.9218 73.5343 30.9218C75.4606 30.9218 76.4238 29.7821 76.4238 27.5028C76.4238 26.0279 76.0182 24.7374 75.2072 23.6313C74.4299 22.5251 73.247 21.2682 71.6587 19.8603C70.3407 18.6536 69.2761 17.5978 68.465 16.6927C67.6539 15.7542 66.9611 14.6313 66.3866 13.324C65.8121 12.0168 65.5248 10.5251 65.5248 8.84916Z" fill="#F23207"/>
</svg>
